<svg xmlns="http://www.w3.org/2000/svg" style="width:0; height:0; visibility:hidden;">
    <symbol id="icon_arrow-left" viewBox="0 0 306 306">
      <g transform="matrix(-1 1.22465e-16 -1.22465e-16 -1 306 306)"><g> <g id="chevron-right"> <polygon points="94.35,0 58.65,35.7 175.95,153 58.65,270.3 94.35,306 247.35,153"/> </g> </g></g>
    </symbol>
    <symbol id="icon_arrow-right" viewBox="0 0 306 306">
       <g> <g id="chevron-right"> <polygon points="94.35,0 58.65,35.7 175.95,153 58.65,270.3 94.35,306 247.35,153"/> </g> </g> 
    </symbol>
    <symbol id="icon_download" viewBox="0 0 33.293 33.293">
       <g> <g> <path d="M16.646,24.786L16.646,24.786c-0.276,0-0.5-0.224-0.5-0.5l0.001-11.279c0-0.276,0.224-0.5,0.5-0.5l0,0
			c0.276,0,0.5,0.224,0.5,0.5l-0.001,11.279C17.146,24.562,16.922,24.786,16.646,24.786z"/> <path d="M16.646,24.786c-0.128,0-0.256-0.049-0.354-0.146l-4.313-4.313c-0.195-0.195-0.195-0.512,0-0.707s0.512-0.195,0.707,0
			l3.959,3.959l3.959-3.959c0.195-0.195,0.512-0.195,0.707,0s0.195,0.512,0,0.707l-4.313,4.313
			C16.902,24.737,16.774,24.786,16.646,24.786z"/> </g> <g> <path d="M27.578,33.293H5.715c-1.378,0-2.5-1.121-2.5-2.5V2.5c0-1.379,1.122-2.5,2.5-2.5h15.877c0.276,0,0.5,0.224,0.5,0.5
			S21.868,1,21.592,1H5.715c-0.827,0-1.5,0.673-1.5,1.5v28.293c0,0.827,0.673,1.5,1.5,1.5h21.863c0.827,0,1.5-0.673,1.5-1.5V8.704
			c0-0.276,0.224-0.5,0.5-0.5s0.5,0.224,0.5,0.5v22.09C30.078,32.172,28.957,33.293,27.578,33.293z"/> <path d="M29.578,9.204h-7.986c-0.276,0-0.5-0.224-0.5-0.5V0.717c0-0.276,0.224-0.5,0.5-0.5s0.5,0.224,0.5,0.5v7.486h7.486
			c0.276,0,0.5,0.224,0.5,0.5S29.855,9.204,29.578,9.204z"/> <path d="M29.578,9.204c-0.13,0-0.26-0.051-0.358-0.151l-7.986-8.203c-0.192-0.197-0.188-0.515,0.01-0.707
			c0.197-0.193,0.514-0.188,0.707,0.01l7.986,8.203c0.192,0.197,0.188,0.515-0.01,0.707C29.83,9.157,29.704,9.204,29.578,9.204z"/> </g> </g>                
    </symbol>
    <symbol id="icon_mail" viewBox="0 0 31.012 31.012">
       <g> <g> <path d="M25.109,21.51c-0.123,0-0.246-0.045-0.342-0.136l-5.754-5.398c-0.201-0.188-0.211-0.505-0.022-0.706    c0.189-0.203,0.504-0.212,0.707-0.022l5.754,5.398c0.201,0.188,0.211,0.505,0.022,0.706C25.375,21.457,25.243,21.51,25.109,21.51z    " fill="#3f7ac8"/> <path d="M5.902,21.51c-0.133,0-0.266-0.053-0.365-0.158c-0.189-0.201-0.179-0.518,0.022-0.706l5.756-5.398    c0.202-0.188,0.519-0.18,0.707,0.022c0.189,0.201,0.179,0.518-0.022,0.706l-5.756,5.398C6.148,21.465,6.025,21.51,5.902,21.51z" fill="#3f7ac8"/> </g> <path d="M28.512,26.529H2.5c-1.378,0-2.5-1.121-2.5-2.5V6.982c0-1.379,1.122-2.5,2.5-2.5h26.012c1.378,0,2.5,1.121,2.5,2.5v17.047   C31.012,25.408,29.89,26.529,28.512,26.529z M2.5,5.482c-0.827,0-1.5,0.673-1.5,1.5v17.047c0,0.827,0.673,1.5,1.5,1.5h26.012   c0.827,0,1.5-0.673,1.5-1.5V6.982c0-0.827-0.673-1.5-1.5-1.5H2.5z" fill="#3f7ac8"/> <path d="M15.506,18.018c-0.665,0-1.33-0.221-1.836-0.662L0.83,6.155C0.622,5.974,0.6,5.658,0.781,5.449   c0.183-0.208,0.498-0.227,0.706-0.048l12.84,11.2c0.639,0.557,1.719,0.557,2.357,0L29.508,5.419   c0.207-0.181,0.522-0.161,0.706,0.048c0.181,0.209,0.16,0.524-0.048,0.706L17.342,17.355   C16.835,17.797,16.171,18.018,15.506,18.018z" fill="#3f7ac8"/> </g> 
    </symbol>
    <symbol id="icon_medical-result" viewBox="0 0 36.822 36.822">
       <g> <g> <g> <g> <path d="M29.343,36.822H7.479c-1.378,0-2.5-1.122-2.5-2.5V6.029c0-1.378,1.122-2.5,2.5-2.5h3.682c0.276,0,0.5,0.224,0.5,0.5
					s-0.224,0.5-0.5,0.5H7.479c-0.827,0-1.5,0.673-1.5,1.5v28.293c0,0.827,0.673,1.5,1.5,1.5h21.863c0.827,0,1.5-0.673,1.5-1.5
					V6.029c0-0.827-0.673-1.5-1.5-1.5h-3.682c-0.276,0-0.5-0.224-0.5-0.5s0.224-0.5,0.5-0.5h3.682c1.378,0,2.5,1.122,2.5,2.5v28.293
					C31.843,35.701,30.721,36.822,29.343,36.822z"/> </g> </g> <path d="M25.661,8.396h-14.5c-0.276,0-0.5-0.224-0.5-0.5V2.688c0-0.276,0.224-0.5,0.5-0.5h4.609C16.005,0.944,17.1,0,18.411,0
			s2.406,0.944,2.641,2.188h4.609c0.276,0,0.5,0.224,0.5,0.5v5.209C26.161,8.173,25.938,8.396,25.661,8.396z M11.661,7.396h13.5
			V3.188h-4.563c-0.276,0-0.5-0.224-0.5-0.5C20.099,1.757,19.342,1,18.411,1s-1.688,0.757-1.688,1.688c0,0.276-0.224,0.5-0.5,0.5
			h-4.563V7.396z"/> </g> <path d="M16.661,27.356c-0.197,0-0.376-0.116-0.457-0.297l-2.368-5.33H9.661c-0.276,0-0.5-0.224-0.5-0.5s0.224-0.5,0.5-0.5h4.5
		c0.198,0,0.376,0.116,0.457,0.297l1.99,4.479l3.582-10.148c0.068-0.191,0.245-0.323,0.447-0.333
		c0.206-0.023,0.391,0.104,0.478,0.288l2.532,5.418h3.515c0.276,0,0.5,0.224,0.5,0.5s-0.224,0.5-0.5,0.5h-3.833
		c-0.194,0-0.371-0.112-0.453-0.288l-2.149-4.599l-3.593,10.181c-0.068,0.193-0.248,0.325-0.452,0.333
		C16.674,27.356,16.667,27.356,16.661,27.356z"/> </g>                
    </symbol>
    <symbol id="icon_phone-call" viewBox="0 0 473.806 473.806">
       <g> <g> <path d="M374.456,293.506c-9.7-10.1-21.4-15.5-33.8-15.5c-12.3,0-24.1,5.3-34.2,15.4l-31.6,31.5c-2.6-1.4-5.2-2.7-7.7-4    c-3.6-1.8-7-3.5-9.9-5.3c-29.6-18.8-56.5-43.3-82.3-75c-12.5-15.8-20.9-29.1-27-42.6c8.2-7.5,15.8-15.3,23.2-22.8    c2.8-2.8,5.6-5.7,8.4-8.5c21-21,21-48.2,0-69.2l-27.3-27.3c-3.1-3.1-6.3-6.3-9.3-9.5c-6-6.2-12.3-12.6-18.8-18.6    c-9.7-9.6-21.3-14.7-33.5-14.7s-24,5.1-34,14.7c-0.1,0.1-0.1,0.1-0.2,0.2l-34,34.3c-12.8,12.8-20.1,28.4-21.7,46.5    c-2.4,29.2,6.2,56.4,12.8,74.2c16.2,43.7,40.4,84.2,76.5,127.6c43.8,52.3,96.5,93.6,156.7,122.7c23,10.9,53.7,23.8,88,26    c2.1,0.1,4.3,0.2,6.3,0.2c23.1,0,42.5-8.3,57.7-24.8c0.1-0.2,0.3-0.3,0.4-0.5c5.2-6.3,11.2-12,17.5-18.1c4.3-4.1,8.7-8.4,13-12.9    c9.9-10.3,15.1-22.3,15.1-34.6c0-12.4-5.3-24.3-15.4-34.3L374.456,293.506z M410.256,398.806    C410.156,398.806,410.156,398.906,410.256,398.806c-3.9,4.2-7.9,8-12.2,12.2c-6.5,6.2-13.1,12.7-19.3,20    c-10.1,10.8-22,15.9-37.6,15.9c-1.5,0-3.1,0-4.6-0.1c-29.7-1.9-57.3-13.5-78-23.4c-56.6-27.4-106.3-66.3-147.6-115.6    c-34.1-41.1-56.9-79.1-72-119.9c-9.3-24.9-12.7-44.3-11.2-62.6c1-11.7,5.5-21.4,13.8-29.7l34.1-34.1c4.9-4.6,10.1-7.1,15.2-7.1    c6.3,0,11.4,3.8,14.6,7c0.1,0.1,0.2,0.2,0.3,0.3c6.1,5.7,11.9,11.6,18,17.9c3.1,3.2,6.3,6.4,9.5,9.7l27.3,27.3    c10.6,10.6,10.6,20.4,0,31c-2.9,2.9-5.7,5.8-8.6,8.6c-8.4,8.6-16.4,16.6-25.1,24.4c-0.2,0.2-0.4,0.3-0.5,0.5    c-8.6,8.6-7,17-5.2,22.7c0.1,0.3,0.2,0.6,0.3,0.9c7.1,17.2,17.1,33.4,32.3,52.7l0.1,0.1c27.6,34,56.7,60.5,88.8,80.8    c4.1,2.6,8.3,4.7,12.3,6.7c3.6,1.8,7,3.5,9.9,5.3c0.4,0.2,0.8,0.5,1.2,0.7c3.4,1.7,6.6,2.5,9.9,2.5c8.3,0,13.5-5.2,15.2-6.9    l34.2-34.2c3.4-3.4,8.8-7.5,15.1-7.5c6.2,0,11.3,3.9,14.4,7.3c0.1,0.1,0.1,0.1,0.2,0.2l55.1,55.1    C420.456,377.706,420.456,388.206,410.256,398.806z" fill="#3f7ac8"/> <path d="M256.056,112.706c26.2,4.4,50,16.8,69,35.8s31.3,42.8,35.8,69c1.1,6.6,6.8,11.2,13.3,11.2c0.8,0,1.5-0.1,2.3-0.2    c7.4-1.2,12.3-8.2,11.1-15.6c-5.4-31.7-20.4-60.6-43.3-83.5s-51.8-37.9-83.5-43.3c-7.4-1.2-14.3,3.7-15.6,11    S248.656,111.506,256.056,112.706z" fill="#3f7ac8"/> <path d="M473.256,209.006c-8.9-52.2-33.5-99.7-71.3-137.5s-85.3-62.4-137.5-71.3c-7.3-1.3-14.2,3.7-15.5,11    c-1.2,7.4,3.7,14.3,11.1,15.6c46.6,7.9,89.1,30,122.9,63.7c33.8,33.8,55.8,76.3,63.7,122.9c1.1,6.6,6.8,11.2,13.3,11.2    c0.8,0,1.5-0.1,2.3-0.2C469.556,223.306,474.556,216.306,473.256,209.006z" fill="#3f7ac8"/> </g> </g> 
    </symbol>
    <symbol id="icon_search" viewBox="0 0 56.966 56.966">
       <path d="M55.146,51.887L41.588,37.786c3.486-4.144,5.396-9.358,5.396-14.786c0-12.682-10.318-23-23-23s-23,10.318-23,23  s10.318,23,23,23c4.761,0,9.298-1.436,13.177-4.162l13.661,14.208c0.571,0.593,1.339,0.92,2.162,0.92  c0.779,0,1.518-0.297,2.079-0.837C56.255,54.982,56.293,53.08,55.146,51.887z M23.984,6c9.374,0,17,7.626,17,17s-7.626,17-17,17  s-17-7.626-17-17S14.61,6,23.984,6z" fill="#3f7ac8"/> 
    </symbol>
    <symbol id="icon_syringe" viewBox="0 0 33 33">
       <g> <path d="M20.548,24.71h-8.097c-0.276,0-0.5-0.224-0.5-0.5V7.932c0-2.508,2.041-4.548,4.548-4.548s4.548,2.041,4.548,4.548V24.21
		C21.048,24.487,20.825,24.71,20.548,24.71z M12.952,23.71h7.097V7.932c0-1.957-1.592-3.548-3.548-3.548s-3.548,1.592-3.548,3.548
		V23.71z"/> <path d="M22.24,24.71H10.76c-0.276,0-0.5-0.224-0.5-0.5s0.224-0.5,0.5-0.5h11.48c0.276,0,0.5,0.224,0.5,0.5
		S22.517,24.71,22.24,24.71z"/> <path d="M20.548,17.326h-8.097c-0.276,0-0.5-0.224-0.5-0.5s0.224-0.5,0.5-0.5h8.097c0.276,0,0.5,0.224,0.5,0.5
		S20.825,17.326,20.548,17.326z"/> <path d="M20.548,33h-8.097c-0.276,0-0.5-0.224-0.5-0.5s0.224-0.5,0.5-0.5h8.097c0.276,0,0.5,0.224,0.5,0.5S20.825,33,20.548,33z"/> <path d="M16.5,33c-0.276,0-0.5-0.224-0.5-0.5V16.826c0-0.276,0.224-0.5,0.5-0.5s0.5,0.224,0.5,0.5V32.5
		C17,32.776,16.776,33,16.5,33z"/> <path d="M16.5,4.383c-0.276,0-0.5-0.224-0.5-0.5V0.5C16,0.224,16.224,0,16.5,0S17,0.224,17,0.5v3.383
		C17,4.16,16.776,4.383,16.5,4.383z"/> </g>                
    </symbol>
    <symbol id="icon_woman" viewBox="0 0 33 33">
       <g> <path d="M16.5,33C7.402,33,0,25.598,0,16.5S7.402,0,16.5,0S33,7.402,33,16.5S25.598,33,16.5,33z M16.5,1C7.953,1,1,7.953,1,16.5   S7.953,32,16.5,32S32,25.047,32,16.5S25.047,1,16.5,1z" fill="#3f7ac8"/> <path d="M16.5,33c-3.869,0-7.634-1.372-10.601-3.864c-0.132-0.11-0.197-0.281-0.174-0.452s0.134-0.317,0.29-0.387   c0.413-0.185,0.867-0.371,1.376-0.556c2.631-0.958,3.929-1.8,4.487-2.963c-4.918-1.225-5.498-4.259-5.521-4.393   c-0.033-0.197,0.053-0.395,0.22-0.504c0.099-0.065,2.454-1.679,2.454-5.811c0-4.493,0.888-9.085,7.469-9.085   s7.469,4.593,7.469,9.085c0,4.132,2.355,5.746,2.456,5.813c0.164,0.109,0.251,0.308,0.218,0.502   c-0.023,0.133-0.604,3.168-5.521,4.393c0.559,1.163,1.856,2.004,4.486,2.963c0.509,0.185,0.964,0.371,1.376,0.557   c0.157,0.071,0.267,0.217,0.29,0.387s-0.042,0.341-0.174,0.452C24.135,31.628,20.37,33,16.5,33z M7.191,28.887   C9.868,30.9,13.143,32,16.5,32c3.358,0,6.633-1.1,9.309-3.113c-0.173-0.069-0.354-0.137-0.542-0.206   c-3.34-1.217-4.775-2.334-5.296-4.123c-0.039-0.134-0.02-0.278,0.052-0.397c0.072-0.12,0.191-0.204,0.327-0.232   c3.886-0.802,4.955-2.719,5.225-3.44c-0.748-0.63-2.605-2.582-2.605-6.418c0-4.853-1.1-8.085-6.469-8.085s-6.469,3.232-6.469,8.085   c0,3.836-1.858,5.788-2.605,6.418c0.268,0.717,1.335,2.637,5.224,3.439c0.137,0.028,0.256,0.112,0.328,0.231   c0.071,0.12,0.091,0.264,0.052,0.397c-0.52,1.789-1.955,2.907-5.296,4.124l0,0C7.545,28.75,7.365,28.818,7.191,28.887z" fill="#3f7ac8"/> </g> 
    </symbol></svg>